<svg xmlns="http://www.w3.org/2000/svg" width="212.935" height="285.188" viewBox="0 0 212.935 285.188">
    <defs>
        <style>
            .cls-1{fill:#cc8e34}.cls-2{fill:#f2d548}.cls-3{fill:#dfa434}.cls-4{fill:#dfab00}.cls-5{fill:#fffaef}
        </style>
    </defs>
    <g id="Group_21" data-name="Group 21">
        <g id="Group_16" data-name="Group 16" transform="translate(145.171 28.146)">
            <g id="Group_14" data-name="Group 14">
                <g id="Group_13" data-name="Group 13">
                    <circle id="Ellipse_1" cx="32.012" cy="32.012" r="32.012" class="cls-1" data-name="Ellipse 1" transform="translate(.507 2.081)"/>
                    <circle id="Ellipse_2" cx="32.012" cy="32.012" r="32.012" class="cls-2" data-name="Ellipse 2"/>
                    <path id="Path_51" d="M-364.961 4.171A24.335 24.335 0 0 1-389.3 28.507a24.335 24.335 0 0 1-24.331-24.336A24.335 24.335 0 0 1-389.3-20.165a24.335 24.335 0 0 1 24.339 24.336z" class="cls-1" data-name="Path 51" transform="translate(420.8 27.334)"/>
                    <path id="Path_52" d="M-363.243 6.215a24.008 24.008 0 0 1-24.008 24.009A24.008 24.008 0 0 1-411.26 6.215a24.008 24.008 0 0 1 24.008-24.009 24.008 24.008 0 0 1 24.009 24.009z" class="cls-3" data-name="Path 52" transform="translate(419.77 26.304)"/>
                    <g id="Group_11" data-name="Group 11" transform="translate(16.968 18.38)">
                        <path id="Path_53" d="M-385 11.033a6.368 6.368 0 0 1-4.673 1.941 6.428 6.428 0 0 1-4.691-1.941 6.389 6.389 0 0 1-1.941-4.691 6.429 6.429 0 0 1 1.941-4.691 6.361 6.361 0 0 1 4.691-1.959 6.393 6.393 0 0 1 4.691 1.941 6.482 6.482 0 0 1 1.922 4.709 6.39 6.39 0 0 1-1.94 4.691zm-4.673-7.261a2.264 2.264 0 0 0-2.552 2.57 2.256 2.256 0 0 0 2.552 2.552 2.264 2.264 0 0 0 2.534-2.588 2.24 2.24 0 0 0-2.536-2.534zm4.223 23.706h-4.223l-.576-.576 11.824-26.67 3.7-.576.576.576zm16.122-1.42A6.313 6.313 0 0 1-374 28.035a6.381 6.381 0 0 1-4.709-1.959 6.381 6.381 0 0 1-1.959-4.709 6.384 6.384 0 0 1 1.959-4.709A6.382 6.382 0 0 1-374 14.7a6.334 6.334 0 0 1 4.691 1.977 6.392 6.392 0 0 1 1.941 4.691 6.4 6.4 0 0 1-1.962 4.691zM-374 18.8a2.272 2.272 0 0 0-2.57 2.57 2.271 2.271 0 0 0 2.57 2.57 2.256 2.256 0 0 0 2.535-2.57A2.256 2.256 0 0 0-374 18.8z" class="cls-1" data-name="Path 53" transform="translate(396.307 .344)"/>
                    </g>
                    <g id="Group_12" data-name="Group 12" transform="translate(16.391 17.84)">
                        <path id="Path_54" d="M-386.021 10.043a6.37 6.37 0 0 1-4.673 1.941 6.429 6.429 0 0 1-4.691-1.941 6.392 6.392 0 0 1-1.941-4.691 6.429 6.429 0 0 1 1.941-4.691 6.362 6.362 0 0 1 4.691-1.961A6.391 6.391 0 0 1-386 .643a6.483 6.483 0 0 1 1.923 4.709 6.392 6.392 0 0 1-1.944 4.691zm-4.673-7.261a2.263 2.263 0 0 0-2.552 2.57 2.256 2.256 0 0 0 2.552 2.548 2.264 2.264 0 0 0 2.534-2.588 2.24 2.24 0 0 0-2.534-2.53zm4.224 23.705h-4.224l11.251-27.245h4.277zm16.121-1.42a6.311 6.311 0 0 1-4.673 1.977 6.382 6.382 0 0 1-4.709-1.959 6.382 6.382 0 0 1-1.959-4.709 6.384 6.384 0 0 1 1.959-4.709 6.384 6.384 0 0 1 4.709-1.959 6.333 6.333 0 0 1 4.691 1.977 6.391 6.391 0 0 1 1.941 4.691 6.4 6.4 0 0 1-1.959 4.692zm-4.673-7.261a2.271 2.271 0 0 0-2.57 2.57 2.271 2.271 0 0 0 2.57 2.57 2.256 2.256 0 0 0 2.535-2.57 2.256 2.256 0 0 0-2.535-2.569z" class="cls-2" data-name="Path 54" transform="translate(397.326 1.298)"/>
                    </g>
                </g>
            </g>
        </g>
        <rect id="Rectangle_23" width="5.16" height="59.345" class="cls-4" data-name="Rectangle 23" rx="2.58" transform="translate(56.153 145.783)"/>
        <rect id="Rectangle_24" width="3.87" height="46.444" class="cls-4" data-name="Rectangle 24" rx="1.935" transform="translate(23.9 125.141)"/>
        <rect id="Rectangle_25" width="3.87" height="46.444" class="cls-4" data-name="Rectangle 25" rx="1.935" transform="translate(31.641 109.66)"/>
        <g id="Group_15" data-name="Group 15" transform="translate(47.239 75.261)">
            <g id="Group_14-2" data-name="Group 14">
                <g id="Group_13-2" data-name="Group 13">
                    <circle id="Ellipse_1-2" cx="60.101" cy="60.101" r="60.101" class="cls-1" data-name="Ellipse 1" transform="translate(.952 3.907)"/>
                    <circle id="Ellipse_2-2" cx="60.101" cy="60.101" r="60.101" class="cls-2" data-name="Ellipse 2"/>
                    <path id="Path_51-2" d="M-322.253 25.525a45.688 45.688 0 0 1-45.688 45.69 45.689 45.689 0 0 1-45.69-45.69 45.689 45.689 0 0 1 45.69-45.69 45.688 45.688 0 0 1 45.688 45.69z" class="cls-1" data-name="Path 51" transform="translate(427.091 33.624)"/>
                    <path id="Path_52-2" d="M-321.11 27.282a45.075 45.075 0 0 1-45.075 45.076 45.075 45.075 0 0 1-45.075-45.076 45.074 45.074 0 0 1 45.075-45.076 45.074 45.074 0 0 1 45.075 45.076z" class="cls-3" data-name="Path 52" transform="translate(427.238 33.771)"/>
                    <g id="Group_11-2" data-name="Group 11" transform="translate(31.856 34.508)">
                        <path id="Path_53-2" d="M-375.084 21.016a11.956 11.956 0 0 1-8.772 3.644 12.068 12.068 0 0 1-8.806-3.644 12 12 0 0 1-3.645-8.806 12.069 12.069 0 0 1 3.645-8.81 11.942 11.942 0 0 1 8.806-3.678 12 12 0 0 1 8.808 3.644 12.169 12.169 0 0 1 3.609 8.84 12 12 0 0 1-3.645 8.81zm-8.772-13.632q-4.791 0-4.791 4.825 0 4.791 4.791 4.791 4.758 0 4.757-4.859-.001-4.757-4.757-4.756zm7.929 44.507h-7.929l-1.082-1.082 22.2-50.071 6.949-1.082L-354.7.738zm30.268-2.665a11.853 11.853 0 0 1-8.773 3.711 11.979 11.979 0 0 1-8.84-3.678 11.98 11.98 0 0 1-3.678-8.84 11.985 11.985 0 0 1 3.678-8.84 11.982 11.982 0 0 1 8.84-3.677 11.892 11.892 0 0 1 8.807 3.711 12 12 0 0 1 3.643 8.806 12.02 12.02 0 0 1-3.677 8.807zm-8.773-13.633q-4.826 0-4.825 4.825t4.825 4.825q4.758 0 4.758-4.825t-4.759-4.825z" class="cls-1" data-name="Path 53" transform="translate(396.307 .344)"/>
                    </g>
                    <g id="Group_12-2" data-name="Group 12" transform="translate(30.774 33.495)">
                        <path id="Path_54-2" d="M-376.1 19.994a11.96 11.96 0 0 1-8.774 3.644 12.069 12.069 0 0 1-8.806-3.644 12 12 0 0 1-3.644-8.808 12.069 12.069 0 0 1 3.644-8.806 11.943 11.943 0 0 1 8.805-3.68 12 12 0 0 1 8.808 3.644 12.172 12.172 0 0 1 3.61 8.84 12 12 0 0 1-3.643 8.81zm-8.774-13.632q-4.791 0-4.791 4.824 0 4.791 4.791 4.791 4.758 0 4.757-4.858-.001-4.757-4.758-4.756zm7.93 44.506h-7.93l21.123-51.153h8.03zm30.267-2.665a11.849 11.849 0 0 1-8.774 3.711 11.982 11.982 0 0 1-8.84-3.677 11.982 11.982 0 0 1-3.677-8.84 11.986 11.986 0 0 1 3.677-8.841 11.986 11.986 0 0 1 8.84-3.677 11.891 11.891 0 0 1 8.808 3.711A12 12 0 0 1-343 39.4a12.013 12.013 0 0 1-3.678 8.8zm-8.774-13.632q-4.825 0-4.824 4.825t4.824 4.825q4.758 0 4.758-4.825t-4.759-4.825z" class="cls-2" data-name="Path 54" transform="translate(397.326 1.298)"/>
                    </g>
                </g>
            </g>
        </g>
        <g id="Group_18" data-name="Group 18" transform="translate(7.104 53.208)">
            <g id="Group_14-3" data-name="Group 14">
                <g id="Group_13-3" data-name="Group 13">
                    <circle id="Ellipse_1-3" cx="25.498" cy="25.498" r="25.498" class="cls-1" data-name="Ellipse 1" transform="translate(.404 1.657)"/>
                    <circle id="Ellipse_2-3" cx="25.498" cy="25.498" r="25.498" class="cls-2" data-name="Ellipse 2"/>
                    <path id="Path_51-3" d="M-374.864-.781A19.383 19.383 0 0 1-394.247 18.6 19.384 19.384 0 0 1-413.631-.781a19.384 19.384 0 0 1 19.384-19.384A19.383 19.383 0 0 1-374.864-.781z" class="cls-1" data-name="Path 51" transform="translate(419.341 25.875)"/>
                    <path id="Path_52-3" d="M-373.014 1.33a19.123 19.123 0 0 1-19.123 19.124A19.123 19.123 0 0 1-411.26 1.33a19.123 19.123 0 0 1 19.123-19.124A19.123 19.123 0 0 1-373.014 1.33z" class="cls-3" data-name="Path 52" transform="translate(418.039 24.572)"/>
                    <g id="Group_11-3" data-name="Group 11" transform="translate(13.515 14.64)">
                        <path id="Path_53-3" d="M-387.3 8.718a5.072 5.072 0 0 1-3.722 1.546 5.12 5.12 0 0 1-3.736-1.546 5.089 5.089 0 0 1-1.546-3.736 5.121 5.121 0 0 1 1.546-3.736 5.066 5.066 0 0 1 3.736-1.561 5.092 5.092 0 0 1 3.737 1.546 5.163 5.163 0 0 1 1.531 3.751 5.089 5.089 0 0 1-1.546 3.736zm-3.722-5.783a1.8 1.8 0 0 0-2.033 2.047 1.8 1.8 0 0 0 2.033 2.033 1.8 1.8 0 0 0 2.018-2.062 1.784 1.784 0 0 0-2.021-2.018zm3.364 18.882h-3.364l-.459-.459 9.42-21.243 2.948-.459.459.459zm12.841-1.131a5.029 5.029 0 0 1-3.722 1.575 5.082 5.082 0 0 1-3.751-1.561 5.083 5.083 0 0 1-1.561-3.751 5.085 5.085 0 0 1 1.561-3.751 5.084 5.084 0 0 1 3.751-1.56 5.045 5.045 0 0 1 3.737 1.575 5.091 5.091 0 0 1 1.546 3.736 5.1 5.1 0 0 1-1.563 3.737zm-3.722-5.784a1.809 1.809 0 0 0-2.047 2.047A1.809 1.809 0 0 0-378.542 19a1.8 1.8 0 0 0 2.019-2.047 1.8 1.8 0 0 0-2.019-2.053z" class="cls-1" data-name="Path 53" transform="translate(396.307 .344)"/>
                    </g>
                    <g id="Group_12-3" data-name="Group 12" transform="translate(13.056 14.21)">
                        <path id="Path_54-3" d="M-388.321 7.735a5.074 5.074 0 0 1-3.722 1.546 5.12 5.12 0 0 1-3.736-1.546A5.091 5.091 0 0 1-397.326 4 5.12 5.12 0 0 1-395.78.263a5.067 5.067 0 0 1 3.736-1.563 5.091 5.091 0 0 1 3.737 1.548A5.164 5.164 0 0 1-386.775 4a5.091 5.091 0 0 1-1.546 3.735zm-3.722-5.783A1.8 1.8 0 0 0-394.076 4a1.8 1.8 0 0 0 2.033 2.033 1.8 1.8 0 0 0 2.018-2.061 1.784 1.784 0 0 0-2.019-2.02zm3.364 18.882h-3.364l8.962-21.7h3.407zm12.841-1.131a5.027 5.027 0 0 1-3.722 1.575 5.084 5.084 0 0 1-3.751-1.56 5.083 5.083 0 0 1-1.56-3.751 5.085 5.085 0 0 1 1.56-3.751 5.085 5.085 0 0 1 3.751-1.56 5.045 5.045 0 0 1 3.737 1.575 5.091 5.091 0 0 1 1.546 3.737 5.1 5.1 0 0 1-1.561 3.732zm-3.722-5.783a1.809 1.809 0 0 0-2.047 2.047 1.809 1.809 0 0 0 2.047 2.047 1.8 1.8 0 0 0 2.019-2.047 1.8 1.8 0 0 0-2.02-2.047z" class="cls-2" data-name="Path 54" transform="translate(397.326 1.298)"/>
                    </g>
                </g>
            </g>
        </g>
        <g id="Group_19" data-name="Group 19" transform="translate(34.196 211.892)">
            <g id="Group_14-4" data-name="Group 14">
                <g id="Group_13-4" data-name="Group 13">
                    <circle id="Ellipse_1-4" cx="25.498" cy="25.498" r="25.498" class="cls-1" data-name="Ellipse 1" transform="translate(.404 1.657)"/>
                    <circle id="Ellipse_2-4" cx="25.498" cy="25.498" r="25.498" class="cls-2" data-name="Ellipse 2"/>
                    <path id="Path_51-4" d="M-374.864-.781A19.383 19.383 0 0 1-394.247 18.6 19.384 19.384 0 0 1-413.631-.781a19.384 19.384 0 0 1 19.384-19.384A19.383 19.383 0 0 1-374.864-.781z" class="cls-1" data-name="Path 51" transform="translate(419.341 25.875)"/>
                    <path id="Path_52-4" d="M-373.014 1.33a19.123 19.123 0 0 1-19.123 19.124A19.123 19.123 0 0 1-411.26 1.33a19.123 19.123 0 0 1 19.123-19.124A19.123 19.123 0 0 1-373.014 1.33z" class="cls-3" data-name="Path 52" transform="translate(418.039 24.572)"/>
                    <g id="Group_11-4" data-name="Group 11" transform="translate(13.515 14.64)">
                        <path id="Path_53-4" d="M-387.3 8.718a5.072 5.072 0 0 1-3.722 1.546 5.12 5.12 0 0 1-3.736-1.546 5.089 5.089 0 0 1-1.546-3.736 5.121 5.121 0 0 1 1.546-3.736 5.066 5.066 0 0 1 3.736-1.561 5.092 5.092 0 0 1 3.737 1.546 5.163 5.163 0 0 1 1.531 3.751 5.089 5.089 0 0 1-1.546 3.736zm-3.722-5.783a1.8 1.8 0 0 0-2.033 2.047 1.8 1.8 0 0 0 2.033 2.033 1.8 1.8 0 0 0 2.018-2.062 1.784 1.784 0 0 0-2.021-2.018zm3.364 18.882h-3.364l-.459-.459 9.42-21.243 2.948-.459.459.459zm12.841-1.131a5.029 5.029 0 0 1-3.722 1.575 5.082 5.082 0 0 1-3.751-1.561 5.083 5.083 0 0 1-1.561-3.751 5.085 5.085 0 0 1 1.561-3.751 5.084 5.084 0 0 1 3.751-1.56 5.045 5.045 0 0 1 3.737 1.575 5.091 5.091 0 0 1 1.546 3.736 5.1 5.1 0 0 1-1.563 3.737zm-3.722-5.784a1.809 1.809 0 0 0-2.047 2.047A1.809 1.809 0 0 0-378.542 19a1.8 1.8 0 0 0 2.019-2.047 1.8 1.8 0 0 0-2.019-2.053z" class="cls-1" data-name="Path 53" transform="translate(396.307 .344)"/>
                    </g>
                    <g id="Group_12-4" data-name="Group 12" transform="translate(13.056 14.21)">
                        <path id="Path_54-4" d="M-388.321 7.735a5.074 5.074 0 0 1-3.722 1.546 5.12 5.12 0 0 1-3.736-1.546A5.091 5.091 0 0 1-397.326 4 5.12 5.12 0 0 1-395.78.263a5.067 5.067 0 0 1 3.736-1.563 5.091 5.091 0 0 1 3.737 1.548A5.164 5.164 0 0 1-386.775 4a5.091 5.091 0 0 1-1.546 3.735zm-3.722-5.783A1.8 1.8 0 0 0-394.076 4a1.8 1.8 0 0 0 2.033 2.033 1.8 1.8 0 0 0 2.018-2.061 1.784 1.784 0 0 0-2.019-2.02zm3.364 18.882h-3.364l8.962-21.7h3.407zm12.841-1.131a5.027 5.027 0 0 1-3.722 1.575 5.084 5.084 0 0 1-3.751-1.56 5.083 5.083 0 0 1-1.56-3.751 5.085 5.085 0 0 1 1.56-3.751 5.085 5.085 0 0 1 3.751-1.56 5.045 5.045 0 0 1 3.737 1.575 5.091 5.091 0 0 1 1.546 3.737 5.1 5.1 0 0 1-1.561 3.732zm-3.722-5.783a1.809 1.809 0 0 0-2.047 2.047 1.809 1.809 0 0 0 2.047 2.047 1.8 1.8 0 0 0 2.019-2.047 1.8 1.8 0 0 0-2.02-2.047z" class="cls-2" data-name="Path 54" transform="translate(397.326 1.298)"/>
                    </g>
                </g>
            </g>
        </g>
        <g id="Group_17" data-name="Group 17" transform="translate(106.467 197.151)">
            <g id="Group_14-5" data-name="Group 14">
                <g id="Group_13-5" data-name="Group 13">
                    <circle id="Ellipse_1-5" cx="42.632" cy="42.632" r="42.632" class="cls-1" data-name="Ellipse 1" transform="translate(.675 2.771)"/>
                    <circle id="Ellipse_2-5" cx="42.632" cy="42.632" r="42.632" class="cls-2" data-name="Ellipse 2"/>
                    <path id="Path_51-5" d="M-348.813 12.245a32.408 32.408 0 0 1-32.408 32.41 32.409 32.409 0 0 1-32.41-32.41 32.409 32.409 0 0 1 32.41-32.41 32.408 32.408 0 0 1 32.408 32.41z" class="cls-1" data-name="Path 51" transform="translate(423.179 29.712)"/>
                    <path id="Path_52-5" d="M-347.312 14.181a31.974 31.974 0 0 1-31.974 31.975 31.974 31.974 0 0 1-31.974-31.975 31.973 31.973 0 0 1 31.974-31.975 31.973 31.973 0 0 1 31.974 31.975z" class="cls-3" data-name="Path 52" transform="translate(422.594 29.127)"/>
                    <g id="Group_11-5" data-name="Group 11" transform="translate(22.597 24.478)">
                        <path id="Path_53-5" d="M-381.252 14.808a8.481 8.481 0 0 1-6.223 2.585 8.56 8.56 0 0 1-6.247-2.585 8.509 8.509 0 0 1-2.585-6.247 8.561 8.561 0 0 1 2.585-6.247A8.471 8.471 0 0 1-387.475-.3a8.513 8.513 0 0 1 6.248 2.585 8.632 8.632 0 0 1 2.56 6.271 8.509 8.509 0 0 1-2.585 6.252zm-6.223-9.67q-3.4 0-3.4 3.423 0 3.4 3.4 3.4 3.375 0 3.375-3.447 0-3.376-3.375-3.376zm5.625 31.571h-5.625l-.768-.768L-372.492.424l4.929-.768.768.768zm21.47-1.891a8.408 8.408 0 0 1-6.223 2.633 8.5 8.5 0 0 1-6.271-2.609 8.5 8.5 0 0 1-2.609-6.271 8.5 8.5 0 0 1 2.609-6.271 8.5 8.5 0 0 1 6.271-2.609 8.436 8.436 0 0 1 6.248 2.633 8.513 8.513 0 0 1 2.584 6.247 8.527 8.527 0 0 1-2.609 6.247zm-6.223-9.67q-3.424 0-3.423 3.423t3.423 3.423q3.375 0 3.375-3.423t-3.372-3.423z" class="cls-1" data-name="Path 53" transform="translate(396.307 .344)"/>
                    </g>
                    <g id="Group_12-5" data-name="Group 12" transform="translate(21.83 23.759)">
                        <path id="Path_54-5" d="M-382.27 13.806a8.484 8.484 0 0 1-6.224 2.585 8.561 8.561 0 0 1-6.247-2.585 8.512 8.512 0 0 1-2.585-6.248 8.562 8.562 0 0 1 2.585-6.247 8.472 8.472 0 0 1 6.247-2.611 8.512 8.512 0 0 1 6.248 2.585 8.634 8.634 0 0 1 2.561 6.271 8.512 8.512 0 0 1-2.585 6.25zm-6.224-9.67q-3.4 0-3.4 3.422 0 3.4 3.4 3.4 3.375 0 3.375-3.446 0-3.376-3.375-3.376zm5.625 31.57h-5.625L-373.51-.579h5.7zm21.47-1.891a8.4 8.4 0 0 1-6.223 2.633 8.5 8.5 0 0 1-6.271-2.609 8.5 8.5 0 0 1-2.609-6.271 8.5 8.5 0 0 1 2.609-6.272 8.5 8.5 0 0 1 6.271-2.609 8.434 8.434 0 0 1 6.248 2.633 8.511 8.511 0 0 1 2.585 6.248 8.522 8.522 0 0 1-2.611 6.247zm-6.223-9.67q-3.423 0-3.422 3.423t3.422 3.423q3.375 0 3.375-3.423t-3.376-3.422z" class="cls-2" data-name="Path 54" transform="translate(397.326 1.298)"/>
                    </g>
                </g>
            </g>
        </g>
        <path id="Path_55" d="M-527.879-42.654l2.5 5.577 5.577 2.5-5.577 2.5-2.5 5.577-2.5-5.577-5.577-2.5 5.577-2.5z" class="cls-5" data-name="Path 55" transform="translate(535.958 167.795)"/>
        <path id="Path_56" d="M-527.879-42.654l2.5 5.577 5.577 2.5-5.577 2.5-2.5 5.577-2.5-5.577-5.577-2.5 5.577-2.5z" class="cls-5" data-name="Path 56" transform="translate(732.734 214.239)"/>
        <path id="Path_57" d="M-527.879-42.654l2.5 5.577 5.577 2.5-5.577 2.5-2.5 5.577-2.5-5.577-5.577-2.5 5.577-2.5z" class="cls-5" data-name="Path 57" transform="translate(713.382 151.024)"/>
        <path id="Path_59" d="M-526.924-42.654l2.8 6.236 6.236 2.8-6.236 2.8-2.8 6.236-2.8-6.236-6.236-2.8 6.236-2.8z" class="cls-5" data-name="Path 59" transform="translate(626.266 87.808)"/>
        <path id="Path_58" d="M-524-42.654l3.7 8.253 8.253 3.7-8.253 3.7-3.7 8.261-3.7-8.253-8.253-3.7 8.253-3.7z" class="cls-5" data-name="Path 58" transform="translate(562.439 218.11)"/>
        <rect id="Rectangle_19" width="5.16" height="59.345" class="cls-4" data-name="Rectangle 19" rx="2.58" transform="translate(75.505 15.481)"/>
        <rect id="Rectangle_21" width="5.16" height="59.345" class="cls-4" data-name="Rectangle 21" rx="2.58" transform="translate(178.714 138.042)"/>
        <rect id="Rectangle_22" width="5.16" height="23.222" class="cls-4" data-name="Rectangle 22" rx="2.58" transform="translate(187.745 130.302)"/>
        <rect id="Rectangle_20" width="5.16" height="39.994" class="cls-4" data-name="Rectangle 20" rx="2.58" transform="translate(84.535)"/>
    </g>
</svg>
